<?xml version="1.0" standalone="no"?>
<!DOCTYPE svg PUBLIC "-//W3C//DTD SVG 20010904//EN"
 "http://www.w3.org/TR/2001/REC-SVG-20010904/DTD/svg10.dtd">
<svg version="1.0" xmlns="http://www.w3.org/2000/svg"
 width="700.000000pt" height="700.000000pt" viewBox="0 0 700.000000 700.000000"
 preserveAspectRatio="xMidYMid meet">
<metadata>
Created by potrace 1.11, written by Peter Selinger 2001-2013
</metadata>
<g transform="translate(0.000000,700.000000) scale(0.100000,-0.100000)"
fill="#000000" stroke="none">
<path d="M1242 6516 c-7 -12 -7 -5325 1 -5332 4 -4 2056 -8 2568 -4 l67 0 -1
95 0 95 -1224 0 -1223 0 0 2480 0 2480 1223 0 1224 0 0 95 c0 52 -3 95 -6 96
-42 7 -2624 2 -2629 -5z"/>
<path d="M900 6329 c-140 -87 -262 -162 -270 -166 -14 -6 -200 -122 -209 -129
-3 -2 -5 -5174 -2 -5325 l1 -35 1333 1 1332 0 45 28 c25 16 77 47 115 71 210
129 531 328 537 334 4 4 -581 7 -1300 7 l-1307 0 0 2688 c0 1785 -3 2687 -10
2686 -5 0 -125 -72 -265 -160z"/>
<path d="M3944 6321 c-2 -2 -4 -46 -4 -96 l0 -92 1225 1 1225 1 0 -2480 0
-2481 -1225 1 -1225 0 0 -97 0 -98 1320 0 1320 0 1 38 c1 48 1 5249 0 5282
l-1 26 -1316 0 c-723 0 -1317 -2 -1320 -5z"/>
<path d="M1494 6050 c0 -118 3 -217 7 -220 4 -3 362 -5 796 -4 l788 1 125 77
c69 43 144 90 168 105 111 67 405 251 408 254 2 2 -513 3 -1144 3 l-1148 0 0
-216z"/>
<path d="M3760 6168 c-63 -39 -126 -77 -140 -85 -14 -8 -73 -44 -132 -81 -59
-37 -166 -103 -237 -146 l-128 -79 1 -56 c1 -38 6 -55 14 -54 6 2 87 50 179
106 231 143 326 201 451 278 l107 65 1 62 c1 34 1 62 0 62 0 0 -53 -32 -116
-72z"/>
<path d="M3855 6031 c-124 -79 -381 -237 -395 -244 -8 -4 -69 -41 -135 -82
l-119 -75 1182 0 1182 0 0 -2195 c0 -1207 3 -2195 8 -2196 4 0 172 -1 374 -2
238 -1 369 2 371 8 2 6 3 1092 3 2415 l-1 2405 -1205 2 -1205 2 -60 -38z"/>
<path d="M3498 857 l-377 -232 2 -58 c0 -45 4 -57 15 -52 13 5 287 171 357
216 17 11 109 68 205 127 l175 108 1 62 c1 34 1 62 0 61 0 0 -171 -105 -378
-232z"/>
<path d="M3677 767 c-133 -82 -253 -155 -267 -163 -14 -8 -45 -28 -70 -44 -25
-16 -62 -39 -83 -50 -21 -11 -36 -24 -33 -28 2 -4 580 -7 1283 -6 l1279 0 250
154 c137 84 272 167 299 185 28 17 74 46 103 64 28 18 52 34 52 35 0 1 -579 2
-1286 2 l-1285 0 -242 -149z"/>
</g>
</svg>
