<?xml version="1.0" encoding="utf-8"?>
<!-- Generator: Adobe Illustrator 19.1.0, SVG Export Plug-In . SVG Version: 6.00 Build 0)  -->
<!DOCTYPE svg PUBLIC "-//W3C//DTD SVG 1.1//EN" "http://www.w3.org/Graphics/SVG/1.1/DTD/svg11.dtd">
<svg version="1.1" id="Layer_1" xmlns="http://www.w3.org/2000/svg" xmlns:xlink="http://www.w3.org/1999/xlink" x="0px" y="0px"
	 viewBox="0 0 443.4 66.7" style="enable-background:new 0 0 443.4 66.7;" xml:space="preserve">
<style type="text/css">
	.st0{fill:#FFFFFF;}
</style>
<path class="st0" d="M443.4,7.3c-11.7-1-20.9,0.5-29.7,1.4c-9.3,0.9-18.1,1.8-30,1.2c-6.3-0.3-12.2-2-18.4-3.8
	c-11.4-3.3-24.3-7-41.2-2.1c-2.9,0.9-5.6,2-8.2,3.1c-2.6,1.1-5,2.1-7.3,2.7c-6.7,1.7-14.5,0.3-22.7-1.1c-11.8-2.1-25.1-4.4-36.6,3.4
	c-7.6,5.1-11.5,13-15,20c-2,4-3.9,7.9-6.3,11c-4.5,5.8-12.3,9.4-20.8,9.6c-8.5,0.2-16.4-3-21.2-8.7c-1.3-1.6-2.6-3.4-4-5.4
	c-3.1-4.5-6.6-9.6-12.3-12.9c-5.9-3.4-12.4-3.8-18.1-4.1c-4.6-0.3-9-0.5-12-2.3c-1.4-0.8-2.8-2.1-4.3-3.6c-1.6-1.5-3.5-3.3-5.7-4.7
	c-10.1-6.6-21.6-4.8-31.8-3.1C90.3,9,83.4,10.2,77.7,8.2c-2-0.7-4.1-1.8-6.3-3c-4.7-2.5-10-5.4-16.6-5.2c-7.3,0.3-13,4.3-18.1,7.8
	c-4.8,3.4-8,5.4-10.8,5c-3.5-0.5-7-1.5-10.4-2.5C10.5,9,4.1,7.8,0,7.4v14.1c3.1,0.4,7.5,1.2,11.6,2.3c3.8,1.1,7.8,2.2,12.1,2.8
	c8.6,1.3,15.5-3.5,21-7.4c3.8-2.7,7.3-5.2,10.5-5.3c2.8-0.1,5.9,1.6,9.5,3.5c2.6,1.4,5.4,2.9,8.5,4c9,3,18.4,1.5,26.8,0.2
	c8.8-1.4,16.4-2.6,21.9,1c1.3,0.8,2.5,2,3.9,3.3c1.9,1.8,4.1,3.8,6.8,5.4c6,3.5,12.5,3.9,18.3,4.3c4.6,0.3,8.9,0.5,12,2.3
	c2.9,1.7,5.2,4.9,7.7,8.7c1.5,2.2,3,4.4,4.8,6.5c7.4,8.7,18.7,13.6,31.1,13.6c0.3,0,0.7,0,1,0c12.8-0.3,24.3-5.7,31.5-15
	c3.3-4.2,5.6-8.8,7.8-13.3c3-6,5.8-11.6,10.3-14.7c6.8-4.6,15.8-3,26.3-1.2c9.3,1.6,18.9,3.3,28.5,0.9c3.4-0.9,6.5-2.2,9.5-3.5
	c2.3-1,4.4-1.9,6.5-2.5c13-3.8,22.5-1.1,33.4,2.1c6.7,1.9,13.6,3.9,21.5,4.3c13,0.7,22.7-0.3,32.1-1.2c8.8-0.9,20.9-1.4,28.4-1.3
	V7.3z"/>
</svg>
