<?xml version="1.0" encoding="utf-8"?>
<!-- Generator: Adobe Illustrator 19.1.0, SVG Export Plug-In . SVG Version: 6.00 Build 0)  -->
<svg version="1.1" id="Layer_1" xmlns="http://www.w3.org/2000/svg" xmlns:xlink="http://www.w3.org/1999/xlink" x="0px" y="0px"
	 viewBox="0 0 455 575" style="enable-background:new 0 0 455 575;" xml:space="preserve">
<style type="text/css">
	.st0{fill:#231F20;stroke:#FFFFFF;stroke-width:3.9995;stroke-miterlimit:10;}
	.st1{fill:#231F20;}
	.st2{fill:#FFFFFF;}
</style>
<g>
	<g>
		<polygon class="st2" points="209.1,475.8 369.9,475.8 414.4,448.4 253.6,448.4 		"/>
		<polygon class="st2" points="403.5,428.4 403.5,127.5 253.6,127.5 209.1,154.9 356.4,154.9 356.4,428.4 		"/>
		<polygon class="st2" points="255,111.5 255,114.4 255,115.2 255,123.5 407.5,123.5 407.5,432.4 255,432.4 255,435.2 255,436.1 
			255,444.4 419.5,444.4 419.5,111.5 		"/>
		<polygon class="st2" points="251,116.8 204,145.7 204,153.3 204,153.3 251,124.4 		"/>
		<polygon class="st2" points="251,437.7 204,466.6 204,474.2 251,445.3 		"/>
		<polygon class="st2" points="243.7,115.2 239.9,115.2 102.6,115.2 102.6,142.6 200,142.6 201.4,142.6 202,142.3 245.9,115.2 		"/>
		<polygon class="st2" points="243.7,436.1 239.9,436.1 82.6,436.1 82.6,100.8 35.5,129.7 35.5,463.5 200,463.5 201.4,463.5 
			202,463.2 245.9,436.1 		"/>
		<polygon class="st2" points="250.2,432.1 251,432.1 251,431.6 251,429.3 251,428.4 251,428.4 251,420.1 98.6,420.1 98.6,111.2 
			246.4,111.2 250.2,111.2 251,111.2 251,110.7 251,108.4 251,107.5 251,99.2 86.6,99.2 86.6,432.1 246.4,432.1 		"/>
	</g>
</g>
</svg>
