<?xml version="1.0" encoding="utf-8"?>
<!-- Generator: Adobe Illustrator 19.1.0, SVG Export Plug-In . SVG Version: 6.00 Build 0)  -->
<svg version="1.1" id="Layer_1" xmlns="http://www.w3.org/2000/svg" xmlns:xlink="http://www.w3.org/1999/xlink" x="0px" y="0px"
	 viewBox="0 0 455 575" style="enable-background:new 0 0 455 575;" xml:space="preserve">
<style type="text/css">
	.st0{fill:#231F20;stroke:#FFFFFF;stroke-width:3.9995;stroke-miterlimit:10;}
	.st1{fill:#231F20;}
	.st2{fill:#FFFFFF;}
</style>
<g>
	<g>
		<polygon class="st1" points="209.1,475.8 369.9,475.8 414.4,448.4 253.6,448.4 		"/>
		<polygon class="st1" points="403.5,428.4 403.5,127.5 253.6,127.5 209.1,154.9 356.4,154.9 356.4,428.4 		"/>
		<polygon class="st1" points="255,111.5 255,114.4 255,115.2 255,123.5 407.5,123.5 407.5,432.4 255,432.4 255,435.2 255,436.1 
			255,444.4 419.5,444.4 419.5,111.5 		"/>
		<polygon class="st1" points="251,116.8 204,145.7 204,153.3 204,153.3 251,124.4 		"/>
		<polygon class="st1" points="251,437.7 204,466.6 204,474.2 251,445.3 		"/>
		<polygon class="st1" points="243.7,115.2 239.9,115.2 102.6,115.2 102.6,142.6 200,142.6 201.4,142.6 202,142.3 245.9,115.2 		"/>
		<polygon class="st1" points="243.7,436.1 239.9,436.1 82.6,436.1 82.6,100.8 35.5,129.7 35.5,463.5 200,463.5 201.4,463.5 
			202,463.2 245.9,436.1 		"/>
		<polygon class="st1" points="250.2,432.1 251,432.1 251,431.6 251,429.3 251,428.4 251,428.4 251,420.1 98.6,420.1 98.6,111.2 
			246.4,111.2 250.2,111.2 251,111.2 251,110.7 251,108.4 251,107.5 251,99.2 86.6,99.2 86.6,432.1 246.4,432.1 		"/>
	</g>
	<g>
		<g>
			<polygon points="192.4,229.8 201.6,229.8 201.6,224.3 176.9,224.3 176.9,229.8 186.1,229.8 186.1,238.2 192.4,238.2 			"/>
			<polygon points="248.8,224.3 242.6,224.3 242.6,235.4 230.3,235.4 230.3,224.3 224,224.3 224,238.2 248.8,238.2 			"/>
			<polygon points="281.4,235.4 271.6,235.4 271.6,229.8 282.9,229.8 282.9,224.3 265.3,224.3 265.3,238.2 281.4,238.2 			"/>
			<rect x="188.4" y="238.2" width="6.3" height="14.7"/>
			<polygon points="228,252.9 228,240.9 240.3,240.9 240.3,252.9 246.6,252.9 246.6,238.2 221.7,238.2 221.7,252.9 			"/>
			<polygon points="285.6,252.9 285.6,247.4 273.8,247.4 273.8,240.6 283.6,240.6 283.6,238.2 267.6,238.2 267.6,252.9 			"/>
			<rect x="231.7" y="285.9" width="6.3" height="14.3"/>
			<path d="M276.4,290.2h5v4.3c-1,0.4-2.2,0.6-3.5,0.6c-1.9,0-3.6-0.4-5-1.3c-1.5-0.8-2.5-1.9-3.3-3.3c-0.7-1.4-1.1-2.9-1.1-4.6
				c0,0,0-0.1,0-0.1h-6.3c0,0,0,0.1,0,0.1c0,2.1,0.4,4,1.2,5.8c0.8,1.8,1.8,3.3,3.2,4.6c1.4,1.3,3,2.3,4.9,3c1.9,0.7,4,1.1,6.3,1.1
				c1.7,0,3.5-0.2,5.2-0.6c1.7-0.4,3.2-1,4.5-1.7V285h-11V290.2z"/>
			<rect x="229.5" y="271.7" width="6.3" height="14.3"/>
			<path d="M273.3,279.5c1.7-1.8,4-2.6,6.9-2.6c1.5,0,3,0.3,4.5,0.8c1.5,0.5,2.9,1.2,4.1,2.1v-6.3c-2.6-1.4-5.5-2.2-8.7-2.2
				c-2.2,0-4.3,0.4-6.3,1.1c-1.9,0.8-3.6,1.8-5,3.1c-1.4,1.3-2.4,2.9-3.2,4.7c-0.8,1.8-1.1,3.7-1.2,5.7h6.3
				C270.7,283.4,271.6,281.2,273.3,279.5z"/>
			<path d="M200.2,333.3c0,2.5-0.8,4.7-2.5,6.4c-1.6,1.7-3.7,2.6-6.2,2.6c-2.5,0-4.5-0.9-6.2-2.6c-1.7-1.7-2.5-3.9-2.5-6.4
				c0-0.3,0-0.5,0-0.8h-6.2c0,0.3,0,0.5,0,0.8c0,2.7,0.6,5.2,1.9,7.5c1.3,2.2,3.1,4,5.4,5.3c2.3,1.3,4.8,1.9,7.6,1.9
				s5.3-0.6,7.6-1.9c2.3-1.3,4.1-3.1,5.4-5.3c1.3-2.2,1.9-4.7,1.9-7.5c0-0.3,0-0.5,0-0.8h-6.3C200.2,332.7,200.2,333,200.2,333.3z"
				/>
			<path d="M241.1,337.8L241.1,337.8c-1.5-2-2.8-3.7-4-5.3H230c0.9,1.3,1.8,2.5,2.6,3.5l8.5,11.5h5.9v-15h-6
				C241.1,334,241.1,335.8,241.1,337.8z"/>
			<path d="M221.2,347.5h6v-10.6c0-0.7,0-2.1,0-4.4h-6V347.5z"/>
			<polygon points="283.6,335.3 283.6,332.5 267.6,332.5 267.6,347.5 285.6,347.5 285.6,342 273.8,342 273.8,335.3 			"/>
			<path d="M196.9,320.5c-2.3-1.3-4.8-1.9-7.6-1.9c-2.8,0-5.3,0.6-7.6,1.9c-2.3,1.3-4.1,3.1-5.4,5.3c-1.2,2-1.8,4.3-1.9,6.7h6.2
				c0.2-2.2,1-4.1,2.5-5.6c1.7-1.7,3.7-2.6,6.2-2.6c2.5,0,4.5,0.9,6.2,2.6c1.5,1.6,2.3,3.4,2.4,5.7h6.3c-0.1-2.4-0.7-4.7-1.9-6.7
				C200.9,323.5,199.1,321.8,196.9,320.5z"/>
			<path d="M243.3,319v10.6c0,0.8,0,1.8,0,2.9h6V319H243.3z"/>
			<path d="M238,330.5l-8.6-11.5h-5.9v13.5h6c0-1.1,0-2.4-0.1-3.8l0.1,0c1,1.4,1.9,2.7,2.8,3.9h7.1
				C238.9,331.8,238.4,331.1,238,330.5z"/>
			<polygon points="281.4,330.1 271.6,330.1 271.6,324.5 282.9,324.5 282.9,319 265.3,319 265.3,332.5 281.4,332.5 			"/>
		</g>
		<g>
			<path d="M182.2,284.6v15.6h8.5c4.3,0,7.5-0.8,9.7-2.3c2.2-1.5,3.2-3.6,3.2-6.4c0-1.7-0.5-3.2-1.4-4.3c-0.9-1.2-2.3-2-4.1-2.6
				c0,0,0,0,0,0H182.2z M196.8,293.3c-0.4,0.5-1,0.9-2,1.1c-1,0.2-2.3,0.4-4,0.4h-2.3v-7.1h3.7c3.4,0,5.1,1.2,5.1,3.5
				C197.3,292.1,197.1,292.8,196.8,293.3z"/>
			<path d="M199.9,278.9c0-2.4-1-4.2-2.9-5.4c-1.9-1.2-5-1.8-9-1.8h-8.3v13h16C198.5,283.6,199.9,281.6,199.9,278.9z M192.5,282.7
				c-0.8,0.5-1.8,0.8-3.2,0.8h-3.3V277h1.9c2.1,0,3.6,0.3,4.5,0.8c0.8,0.5,1.3,1.3,1.3,2.5C193.6,281.3,193.2,282.1,192.5,282.7z"/>
		</g>
	</g>
</g>
</svg>
