<?xml version="1.0" encoding="utf-8"?>
<!-- Generator: Adobe Illustrator 19.0.0, SVG Export Plug-In . SVG Version: 6.00 Build 0)  -->
<svg version="1.1" id="Layer_1" xmlns="http://www.w3.org/2000/svg" xmlns:xlink="http://www.w3.org/1999/xlink" x="0px" y="0px"
	 viewBox="0 0 216.7 311.7" style="enable-background:new 0 0 216.7 311.7;" xml:space="preserve">
<style type="text/css">
	.st0{font-family:'AzoSans-Bold';}
	.st1{font-size:34.7404px;}
	.st2{letter-spacing:11;}
</style>
<g>
	<polygon points="208.5,77.8 197.1,83.8 181,94.4 181,244.9 196.6,248.5 203.9,244.5 208.5,244.4 	"/>
	<polygon points="55.3,63.6 38.8,72.4 38.8,88.1 64,73.2 	"/>
	<polygon points="50.2,90.1 76.9,74.6 66,74.6 39.9,90.1 	"/>
	<polygon points="59.6,95.7 87.7,80 81,74.8 53.4,90.8 	"/>
	<polygon points="161.7,252.1 165,264.7 174.2,244.3 	"/>
	<polygon points="131,256.4 131.7,256.8 138.5,263.4 140.6,257.1 156.3,240.8 	"/>
	<polygon points="98.3,253.4 101,256.3 109.9,246.2 	"/>
	<polygon points="79.5,90.1 95.4,80.2 95.6,80.4 104.4,74.6 99.9,74.6 89.7,81.6 89.7,81.5 74.3,90.1 	"/>
	<polygon points="181.1,256.5 174,272.2 195.1,259.7 	"/>
	<polygon points="133.5,104 160.8,87 150.7,45.9 144.8,74 128.5,83.9 	"/>
	<polygon points="167.1,100.8 194.8,82.7 178.7,65.7 177.5,71.6 164,87.4 161.4,89.3 159.4,90.5 	"/>
	<polygon points="114,90.1 140.4,74.6 135.3,74.6 108.6,90.1 	"/>
	<polygon points="105.5,89.3 133.1,73.3 118,59.6 108.7,74.6 97.4,82 	"/>
	<polygon points="206.9,255.7 180.3,271.2 190,271.1 216.7,255.6 	"/>
	<polygon points="27.5,255.6 27.5,67.1 0,82.9 0,271.6 	"/>
	<polygon points="136,60.7 148.8,0 121.2,16.8 115.8,42.5 	"/>
	<polygon points="90.1,67.6 96.4,63.3 102.5,63.3 114.6,43.6 87.1,60.6 85.1,63.8 	"/>
	<polygon points="141.8,282.2 124.8,265.8 113.3,259.4 101.3,273 91.6,278.6 96.8,281.5 114.2,298.2 	"/>
	<polygon points="152.4,261.1 150.5,263.1 143.5,284 128.8,292.5 133.8,311.7 161.4,295.6 	"/>
	<polygon points="171.6,45 163.3,50 167.2,65.8 	"/>
	<polygon points="85.4,256.3 57.8,272.3 72,287.3 99.7,271.3 	"/>
	<path d="M206.3,253.5l11.3-0.1V63.8l-19.3,8.6l-24.9-24.8l-4.2,19.9l-3,3.5L150,5.2L137.5,65L116,45.7l-12.3,19.9h-6.6L90,70.4
		l-6.3-4.8H69.2l-12-13.3L29.8,66.9v187.8l29.4-10l14.4,11.1l12.5-2.2l15.2,16l11.5-13.1l13.5,7.6l16.3,15.7l6-17.9l5.1-5.3l9.2,35
		l17.1-37.8l18.1,4.2L206.3,253.5z M175.9,246.1l-11.5,25.4l-7.4-28.2l-14.5,15l-3.1,9.2l-9.3-9l-18.9-10.6l-10.3,11.7l-12.6-13.3
		l-13.1,2.3l-14.9-11.5l-23.9,8.1V71l19.2-10.2l10.5,11.6h15.2l8.3,6.4l9.4-6.4h8.3l10-16.2l18,16.2h7.4l7.7-36.7l12.2,49.4
		l12.8-14.6l2-9.5l19.3,20.4l14-7.4v172.6l-6.3,0.1l-7.6,4.2L175.9,246.1z"/>
	<polygon points="24.9,264.5 48.6,250.7 29.1,257.3 5.4,271.1 	"/>
	<polygon points="71.3,256.9 58.9,247.4 31.3,263.4 43.7,272.9 	"/>
	<polygon points="79.6,257.1 73.7,258.1 47.9,273.1 53.8,272 	"/>
</g>
<text transform="matrix(1 0 0 1 63.6477 140.2454)"><tspan x="0" y="0" class="st0 st1 st2">THE</tspan><tspan x="5.5" y="41.7" class="st0 st1 st2">BIG</tspan><tspan x="-3.3" y="83.4" class="st0 st1 st2">ONE</tspan></text>
</svg>
