<?xml version="1.0" encoding="utf-8"?>
<!-- Generator: Adobe Illustrator 19.0.0, SVG Export Plug-In . SVG Version: 6.00 Build 0)  -->
<svg version="1.1" id="Layer_1" xmlns="http://www.w3.org/2000/svg" xmlns:xlink="http://www.w3.org/1999/xlink" x="0px" y="0px"
	 viewBox="-251 205.3 216.7 311.7" style="enable-background:new -251 205.3 216.7 311.7;" xml:space="preserve">
<g>
	<polygon points="-42.5,283.1 -53.9,289.1 -70,299.7 -70,450.2 -54.4,453.8 -47.1,449.8 -42.5,449.7 	"/>
	<polygon points="-195.7,268.9 -212.2,277.7 -212.2,293.4 -187,278.5 	"/>
	<polygon points="-200.8,295.4 -174.1,279.9 -185,279.9 -211.1,295.4 	"/>
	<polygon points="-191.4,301 -163.3,285.3 -170,280.1 -197.6,296.1 	"/>
	<polygon points="-89.3,457.4 -86,470 -76.8,449.6 	"/>
	<polygon points="-120,461.7 -119.3,462.1 -112.5,468.7 -110.4,462.4 -94.7,446.1 	"/>
	<polygon points="-152.7,458.7 -150,461.6 -141.1,451.5 	"/>
	<polygon points="-171.5,295.4 -155.6,285.5 -155.4,285.7 -146.6,279.9 -151.1,279.9 -161.3,286.9 -161.3,286.8 -176.7,295.4 	"/>
	<polygon points="-69.9,461.8 -77,477.5 -55.9,465 	"/>
	<polygon points="-117.5,309.3 -90.2,292.3 -100.3,251.2 -106.2,279.3 -122.5,289.2 	"/>
	<polygon points="-83.9,306.1 -56.2,288 -72.3,271 -73.5,276.9 -87,292.7 -89.6,294.6 -91.6,295.8 	"/>
	<polygon points="-137,295.4 -110.6,279.9 -115.7,279.9 -142.4,295.4 	"/>
	<polygon points="-145.5,294.6 -117.9,278.6 -133,264.9 -142.3,279.9 -153.6,287.3 	"/>
	<polygon points="-44.1,461 -70.7,476.5 -61,476.4 -34.3,460.9 	"/>
	<polygon points="-223.5,460.9 -223.5,272.4 -251,288.2 -251,476.9 	"/>
	<polygon points="-115,266 -102.2,205.3 -129.8,222.1 -135.2,247.8 	"/>
	<polygon points="-160.9,272.9 -154.6,268.6 -148.5,268.6 -136.4,248.9 -163.9,265.9 -165.9,269.1 	"/>
	<polygon points="-109.2,487.5 -126.2,471.1 -137.7,464.7 -149.7,478.3 -159.4,483.9 -154.2,486.8 -136.8,503.5 	"/>
	<polygon points="-98.6,466.4 -100.5,468.4 -107.5,489.3 -122.2,497.8 -117.2,517 -89.6,500.9 	"/>
	<polygon points="-79.4,250.3 -87.7,255.3 -83.8,271.1 	"/>
	<polygon points="-165.6,461.6 -193.2,477.6 -179,492.6 -151.3,476.6 	"/>
	<path d="M-44.7,458.8l11.3-0.1V269.1l-19.3,8.6l-24.9-24.8l-4.2,19.9l-3,3.5l-16.2-65.8l-12.5,59.8L-135,251l-12.3,19.9h-6.6
		l-7.1,4.8l-6.3-4.8h-14.5l-12-13.3l-27.4,14.6V460l29.4-10l14.4,11.1l12.5-2.2l15.2,16l11.5-13.1l13.5,7.6l16.3,15.7l6-17.9
		l5.1-5.3l9.2,35l17.1-37.8l18.1,4.2L-44.7,458.8z M-75.1,451.4l-11.5,25.4l-7.4-28.2l-14.5,15l-3.1,9.2l-9.3-9l-18.9-10.6
		l-10.3,11.7l-12.6-13.3l-13.1,2.3l-14.9-11.5l-23.9,8.1V276.3l19.2-10.2l10.5,11.6h15.2l8.3,6.4l9.4-6.4h8.3l10-16.2l18,16.2h7.4
		l7.7-36.7l12.2,49.4l12.8-14.6l2-9.5l19.3,20.4l14-7.4v172.6l-6.3,0.1l-7.6,4.2L-75.1,451.4z"/>
	<polygon points="-226.1,469.8 -202.4,456 -221.9,462.6 -245.6,476.4 	"/>
	<polygon points="-179.7,462.2 -192.1,452.7 -219.7,468.7 -207.3,478.2 	"/>
	<polygon points="-171.4,462.4 -177.3,463.4 -203.1,478.4 -197.2,477.3 	"/>
</g>
</svg>
