<?xml version="1.0" encoding="utf-8"?>
<!-- Generator: Adobe Illustrator 19.0.0, SVG Export Plug-In . SVG Version: 6.00 Build 0)  -->
<svg version="1.1" id="Layer_1" xmlns="http://www.w3.org/2000/svg" xmlns:xlink="http://www.w3.org/1999/xlink" x="0px" y="0px"
	 viewBox="-200 487 319 98" style="enable-background:new -200 487 319 98;" xml:space="preserve">
<style type="text/css">
	.st0{fill:#FFFFFF;}
</style>
<g>
	<path class="st0" d="M-188.7,518v-18.7h5.6c5.7,0,8.6,2,8.6,6c0,2.1-0.7,3.6-2.2,4.6s-3.6,1.5-6.5,1.5h-1.3v6.7L-188.7,518
		L-188.7,518z M-184.6,507.9h1.5c1.7,0,2.8-0.2,3.5-0.6c0.7-0.4,1-1,1-1.9c0-1-0.3-1.7-1-2c-0.7-0.3-1.9-0.5-3.5-0.5h-1.4v5H-184.6z
		"/>
	<path class="st0" d="M-149.4,517c-1.5,0.8-3.2,1.3-5,1.3c-1.8,0-3.5-0.4-5-1.3c-1.5-0.8-2.7-2-3.5-3.5c-0.8-1.5-1.3-3.1-1.3-4.9
		s0.4-3.4,1.3-4.9c0.9-1.5,2-2.6,3.5-3.5s3.2-1.3,5-1.3c1.8,0,3.5,0.4,5,1.3s2.7,2,3.5,3.5c0.8,1.5,1.3,3.1,1.3,4.9
		s-0.4,3.4-1.3,4.9C-146.7,515-147.9,516.2-149.4,517z M-158.4,512.8c1.1,1.1,2.4,1.7,4,1.7c1.6,0,3-0.6,4-1.7
		c1.1-1.1,1.6-2.5,1.6-4.2s-0.5-3.1-1.6-4.2c-1.1-1.1-2.4-1.7-4-1.7c-1.6,0-3,0.6-4,1.7c-1.1,1.1-1.6,2.5-1.6,4.2
		S-159.5,511.7-158.4,512.8z"/>
	<path class="st0" d="M-132.9,518v-18.7h5.9c5.4,0,8.1,1.9,8.1,5.6c0,1.2-0.3,2.3-1,3.2s-1.6,1.6-2.8,2l5.3,7.9h-4.7l-4.7-7.4h-1.8
		v7.4H-132.9z M-128.8,507.5h2.1c1.2,0,2.1-0.2,2.7-0.5c0.6-0.4,0.9-1,0.9-1.8s-0.3-1.4-0.9-1.8s-1.7-0.5-3.2-0.5h-1.6V507.5z"/>
	<path class="st0" d="M-102.4,518v-15.1h-6v-3.6h16.2v3.6h-6V518H-102.4z"/>
	<path class="st0" d="M-81.2,516.9v-4.1c1,0.6,2,1.1,3,1.4c1.1,0.3,2,0.5,2.8,0.5s1.4-0.2,1.9-0.5c0.5-0.3,0.7-0.8,0.7-1.5
		c0-0.2,0-0.5-0.1-0.7c-0.1-0.2-0.2-0.4-0.3-0.5c-0.2-0.1-0.3-0.3-0.5-0.4s-0.4-0.2-0.7-0.3c-0.3-0.1-0.5-0.2-0.8-0.3
		s-0.5-0.2-0.9-0.3c-0.4-0.1-0.7-0.2-1-0.3c-0.6-0.2-1.1-0.4-1.5-0.6s-0.9-0.4-1.3-0.7s-0.8-0.6-1.1-1c-0.3-0.4-0.5-0.8-0.7-1.3
		s-0.3-1.1-0.3-1.7c0-1.7,0.6-3.1,1.8-4.1c1.2-1,2.8-1.5,4.8-1.5c1,0,1.9,0.1,3,0.3c1.1,0.2,1.9,0.6,2.7,1v4.1c-0.9-0.6-1.9-1-3-1.4
		c-1.1-0.3-2-0.5-2.8-0.5c-0.7,0-1.3,0.1-1.7,0.4c-0.4,0.3-0.6,0.7-0.6,1.3c0,0.3,0.1,0.5,0.2,0.7s0.2,0.4,0.4,0.5
		c0.1,0.1,0.4,0.3,0.6,0.4c0.3,0.1,0.5,0.2,0.8,0.3s0.6,0.2,1,0.3c0.4,0.1,0.8,0.2,1.1,0.3c0.6,0.2,1.2,0.4,1.6,0.6
		c0.5,0.2,0.9,0.5,1.4,0.8c0.4,0.3,0.8,0.7,1.1,1c0.3,0.4,0.5,0.8,0.7,1.4s0.3,1.1,0.3,1.8c0,1.8-0.6,3.2-1.9,4.3
		c-1.2,1-2.9,1.6-4.9,1.6c-1,0-1.9-0.1-3-0.3C-79.5,517.7-80.4,517.4-81.2,516.9z"/>
	<path class="st0" d="M-56.9,518v-18.7h4.1v7.2h8.1v-7.2h4.1V518h-4.1v-7.9h-8.1v7.9H-56.9z"/>
	<path class="st0" d="M-14.2,517c-1.5,0.8-3.2,1.3-5,1.3s-3.5-0.4-5-1.3c-1.5-0.8-2.7-2-3.5-3.5s-1.3-3.1-1.3-4.9s0.4-3.4,1.3-4.9
		s2-2.6,3.5-3.5s3.2-1.3,5-1.3s3.5,0.4,5,1.3s2.7,2,3.5,3.5s1.3,3.1,1.3,4.9s-0.4,3.4-1.3,4.9S-12.7,516.2-14.2,517z M-23.3,512.8
		c1.1,1.1,2.4,1.7,4,1.7s3-0.6,4-1.7c1.1-1.1,1.6-2.5,1.6-4.2s-0.5-3.1-1.6-4.2s-2.4-1.7-4-1.7s-3,0.6-4,1.7
		c-1.1,1.1-1.6,2.5-1.6,4.2S-24.3,511.7-23.3,512.8z"/>
	<path class="st0" d="M5.6,518l-5.7-18.7h4.3l2.4,8c0.4,1.3,0.8,2.9,1.3,4.8H8c0.5-1.6,0.9-3.3,1.4-4.9l2.5-8h3l2.5,8
		c0.5,1.6,1,3.2,1.4,4.9l0,0c0.4-1.6,0.9-3.3,1.4-4.9l2.4-8h4.1L21,518h-4.4l-2-6.6c-0.5-1.6-0.9-3.1-1.3-4.5h-0.1
		c-0.4,1.6-0.9,3.1-1.3,4.6l-2,6.5H5.6z"/>
	<path class="st0" d="M37.5,518v-18.7h4.1v15.1h8.2v3.6H37.5z"/>
	<path class="st0" d="M60.6,518v-18.7h4.1V518H60.6z"/>
	<path class="st0" d="M91.2,517c-1.5,0.8-3.2,1.3-5,1.3s-3.5-0.4-5-1.3c-1.5-0.8-2.7-2-3.5-3.5c-0.9-1.5-1.3-3.1-1.3-4.9
		s0.4-3.4,1.3-4.9c0.8-1.5,2-2.6,3.5-3.5c1.5-0.8,3.2-1.3,5-1.3s3.5,0.4,5,1.3s2.7,2,3.5,3.5s1.3,3.1,1.3,4.9s-0.4,3.4-1.3,4.9
		C93.8,515,92.7,516.2,91.2,517z M82.2,512.8c1.1,1.1,2.4,1.7,4,1.7s3-0.6,4-1.7c1.1-1.1,1.6-2.5,1.6-4.2s-0.5-3.1-1.6-4.2
		s-2.4-1.7-4-1.7s-3,0.6-4,1.7c-1.1,1.1-1.6,2.5-1.6,4.2S81.1,511.7,82.2,512.8z"/>
</g>
<g>
	<g>
		<path class="st0" d="M-181.2,561.1v-25h8.1V561c0,4.2-0.8,7.3-2.4,9.3c-1.9,2.3-4.8,3.4-8.7,3.4c-2,0-3.8-0.3-5.5-1v-7.3
			c1.6,0.7,3.2,1,4.7,1s2.5-0.4,3-1.1C-181.5,564.4-181.2,563.1-181.2,561.1z"/>
		<path class="st0" d="M-163.1,567.6c-1.8-2.7-2.7-6.8-2.7-12.3V536h8.1v19c0,2,0.1,3.7,0.4,5.1c0.2,1.4,0.7,2.5,1.3,3.5
			c0.6,1,1.5,1.7,2.5,2.1c1.1,0.4,2.4,0.7,4,0.7c2.9,0,5-0.9,6.3-2.6c1.2-1.8,1.9-4.6,1.9-8.6v-19h7.8v19.1c0,2.9-0.2,5.3-0.7,7.4
			c-0.4,2-1.2,3.8-2.2,5.2c-1.3,1.9-3.1,3.3-5.4,4.4c-2.3,1-4.9,1.6-7.9,1.6s-5.6-0.5-7.9-1.6C-159.9,571-161.8,569.5-163.1,567.6z"
			/>
		<path class="st0" d="M-100.3,573.1l-11.1-14.9c-1.9-2.6-4.2-5.8-6.9-9.6h-0.1c0.1,5.9,0.1,9.4,0.1,10.7v13.8h-7.8V536h7.7l11,15
			c1.9,2.6,4.2,5.8,6.9,9.6h0.1c-0.1-4.7-0.1-8.3-0.1-10.7V536h7.8v37.1H-100.3z"/>
		<path class="st0" d="M-84.8,573.1V536H-62v7.1h-14.7v7.3H-64v6.7h-12.7v8.8h15.3v7.1L-84.8,573.1L-84.8,573.1z"/>
		<path class="st0" d="M-34.6,573.1v-27.3l-7.5,2.7v-7.4l15.7-5.7V573L-34.6,573.1L-34.6,573.1z"/>
		<path class="st0" d="M-18.1,571.4l0.6-7.2c3.2,1.6,6.2,2.3,9,2.3c2.1,0,3.8-0.4,5-1.2c1.2-0.8,1.9-1.9,1.9-3.3
			c0-0.8-0.2-1.5-0.7-2.2c-0.5-0.6-1.1-1.1-1.8-1.5c-0.7-0.4-1.6-0.7-2.6-0.9s-1.9-0.4-2.8-0.5c-0.9-0.1-1.8-0.1-2.7-0.1
			c-1.6,0-3.1,0.1-4.4,0.3l1.5-21H5.1l-0.5,7.1H-7.5l-0.6,7.4c1.4,0.1,2.8,0.2,4.2,0.5c1.3,0.3,2.7,0.7,3.9,1.3
			c1.3,0.6,2.4,1.3,3.4,2.1s1.7,1.9,2.3,3.2c0.6,1.3,0.9,2.7,0.9,4.3c0,3.6-1.4,6.4-4.1,8.6c-2.7,2.2-6.2,3.2-10.5,3.2
			c-1.9,0-3.7-0.2-5.6-0.6S-16.9,572.1-18.1,571.4z"/>
	</g>
	<g>
		<path class="st0" d="M15.5,561.7V556h20.2v5.7H15.5z"/>
	</g>
	<g>
		<path class="st0" d="M53.1,573.1v-27.3l-7.5,2.7v-7.4l15.7-5.7V573L53.1,573.1L53.1,573.1z"/>
		<path class="st0" d="M81.6,536h9.5l-9.8,14.5v0.1c1.1-0.5,2.4-0.8,3.9-0.8c3.1,0,5.8,1.1,8,3.3c2.2,2.2,3.3,4.9,3.3,8.2
			c0,3.5-1.3,6.5-3.9,8.8c-2.6,2.3-5.9,3.5-9.9,3.5c-2.6,0-4.9-0.5-7-1.5s-3.7-2.5-4.9-4.5c-1.2-2-1.8-4.3-1.8-6.9
			c0-2,0.4-4,1.1-5.8s1.9-4.1,3.5-6.5L81.6,536z M77.3,561.3c0,1.5,0.5,2.8,1.6,3.9c1,1.1,2.4,1.6,4,1.6s2.9-0.5,4-1.5
			s1.6-2.3,1.6-3.9c0-1.5-0.5-2.8-1.6-3.9c-1-1-2.4-1.6-4-1.6s-2.9,0.5-4,1.5C77.8,558.5,77.3,559.8,77.3,561.3z"/>
	</g>
</g>
<g>
	<path class="st0" d="M100.7,506.3v-6.1h-2.2v-0.8h5.3v0.8h-2.2v6.1H100.7z M105,506.3v-6.9h0.9l2.4,3.5l2.5-3.5h0.9v6.9h-0.9V501
		l0,0l-2.4,3.4l-2.4-3.5l0,0v5.4H105z"/>
</g>
</svg>
