<?xml version="1.0" encoding="utf-8"?>
<!-- Generator: Adobe Illustrator 19.0.0, SVG Export Plug-In . SVG Version: 6.00 Build 0)  -->
<svg version="1.1" id="Layer_1" xmlns="http://www.w3.org/2000/svg" xmlns:xlink="http://www.w3.org/1999/xlink" x="0px" y="0px"
	 viewBox="-132 73 455 575" style="enable-background:new -132 73 455 575;" xml:space="preserve">
<style type="text/css">
	.st0{fill:#FFFFFF;}
</style>
<g>
	<g>
		<polygon class="st0" points="77.1,548.8 237.9,548.8 282.4,521.4 121.6,521.4 		"/>
		<polygon class="st0" points="271.5,501.4 271.5,200.5 121.6,200.5 77.1,227.9 224.4,227.9 224.4,501.4 		"/>
		<polygon class="st0" points="123,184.5 123,187.4 123,188.2 123,196.5 275.5,196.5 275.5,505.4 123,505.4 123,508.2 123,509.1 
			123,517.4 287.5,517.4 287.5,184.5 		"/>
		<polygon class="st0" points="119,189.8 72,218.7 72,226.3 72,226.3 119,197.4 		"/>
		<polygon class="st0" points="119,510.7 72,539.6 72,547.2 119,518.3 		"/>
		<polygon class="st0" points="111.7,188.2 107.9,188.2 -29.4,188.2 -29.4,215.6 68,215.6 69.4,215.6 70,215.3 113.9,188.2 		"/>
		<polygon class="st0" points="111.7,509.1 107.9,509.1 -49.4,509.1 -49.4,173.8 -96.5,202.7 -96.5,536.5 68,536.5 69.4,536.5 
			70,536.2 113.9,509.1 		"/>
		<polygon class="st0" points="118.2,505.1 119,505.1 119,504.6 119,502.3 119,501.4 119,501.4 119,493.1 -33.4,493.1 -33.4,184.2 
			114.4,184.2 118.2,184.2 119,184.2 119,183.7 119,181.4 119,180.5 119,172.2 -45.4,172.2 -45.4,505.1 114.4,505.1 		"/>
	</g>
	<g>
		<g>
			<polygon class="st0" points="60.4,302.8 69.6,302.8 69.6,297.3 44.9,297.3 44.9,302.8 54.1,302.8 54.1,311.2 60.4,311.2 			"/>
			<polygon class="st0" points="116.8,297.3 110.6,297.3 110.6,308.4 98.3,308.4 98.3,297.3 92,297.3 92,311.2 116.8,311.2 			"/>
			<polygon class="st0" points="149.4,308.4 139.6,308.4 139.6,302.8 150.9,302.8 150.9,297.3 133.3,297.3 133.3,311.2 149.4,311.2 
							"/>
			<rect x="56.4" y="311.2" class="st0" width="6.3" height="14.7"/>
			<polygon class="st0" points="96,325.9 96,313.9 108.3,313.9 108.3,325.9 114.6,325.9 114.6,311.2 89.7,311.2 89.7,325.9 			"/>
			<polygon class="st0" points="153.6,325.9 153.6,320.4 141.8,320.4 141.8,313.6 151.6,313.6 151.6,311.2 135.6,311.2 135.6,325.9 
							"/>
			<rect x="99.7" y="358.9" class="st0" width="6.3" height="14.3"/>
			<path class="st0" d="M144.4,363.2h5v4.3c-1,0.4-2.2,0.6-3.5,0.6c-1.9,0-3.6-0.4-5-1.3c-1.5-0.8-2.5-1.9-3.3-3.3
				c-0.7-1.4-1.1-2.9-1.1-4.6v-0.1h-6.3v0.1c0,2.1,0.4,4,1.2,5.8s1.8,3.3,3.2,4.6c1.4,1.3,3,2.3,4.9,3s4,1.1,6.3,1.1
				c1.7,0,3.5-0.2,5.2-0.6s3.2-1,4.5-1.7V358h-11v5.2H144.4z"/>
			<rect x="97.5" y="344.7" class="st0" width="6.3" height="14.3"/>
			<path class="st0" d="M141.3,352.5c1.7-1.8,4-2.6,6.9-2.6c1.5,0,3,0.3,4.5,0.8s2.9,1.2,4.1,2.1v-6.3c-2.6-1.4-5.5-2.2-8.7-2.2
				c-2.2,0-4.3,0.4-6.3,1.1c-1.9,0.8-3.6,1.8-5,3.1c-1.4,1.3-2.4,2.9-3.2,4.7c-0.8,1.8-1.1,3.7-1.2,5.7h6.3
				C138.7,356.4,139.6,354.2,141.3,352.5z"/>
			<path class="st0" d="M68.2,406.3c0,2.5-0.8,4.7-2.5,6.4c-1.6,1.7-3.7,2.6-6.2,2.6s-4.5-0.9-6.2-2.6s-2.5-3.9-2.5-6.4
				c0-0.3,0-0.5,0-0.8h-6.2c0,0.3,0,0.5,0,0.8c0,2.7,0.6,5.2,1.9,7.5c1.3,2.2,3.1,4,5.4,5.3c2.3,1.3,4.8,1.9,7.6,1.9
				s5.3-0.6,7.6-1.9s4.1-3.1,5.4-5.3c1.3-2.2,1.9-4.7,1.9-7.5c0-0.3,0-0.5,0-0.8h-6.3C68.2,405.7,68.2,406,68.2,406.3z"/>
			<path class="st0" d="M109.1,410.8L109.1,410.8c-1.5-2-2.8-3.7-4-5.3H98c0.9,1.3,1.8,2.5,2.6,3.5l8.5,11.5h5.9v-15h-6
				C109.1,407,109.1,408.8,109.1,410.8z"/>
			<path class="st0" d="M89.2,420.5h6v-10.6c0-0.7,0-2.1,0-4.4h-6V420.5z"/>
			<polygon class="st0" points="151.6,408.3 151.6,405.5 135.6,405.5 135.6,420.5 153.6,420.5 153.6,415 141.8,415 141.8,408.3 			
				"/>
			<path class="st0" d="M64.9,393.5c-2.3-1.3-4.8-1.9-7.6-1.9s-5.3,0.6-7.6,1.9s-4.1,3.1-5.4,5.3c-1.2,2-1.8,4.3-1.9,6.7h6.2
				c0.2-2.2,1-4.1,2.5-5.6c1.7-1.7,3.7-2.6,6.2-2.6s4.5,0.9,6.2,2.6c1.5,1.6,2.3,3.4,2.4,5.7h6.3c-0.1-2.4-0.7-4.7-1.9-6.7
				C68.9,396.5,67.1,394.8,64.9,393.5z"/>
			<path class="st0" d="M111.3,392v10.6c0,0.8,0,1.8,0,2.9h6V392H111.3z"/>
			<path class="st0" d="M106,403.5L97.4,392h-5.9v13.5h6c0-1.1,0-2.4-0.1-3.8h0.1c1,1.4,1.9,2.7,2.8,3.9h7.1
				C106.9,404.8,106.4,404.1,106,403.5z"/>
			<polygon class="st0" points="149.4,403.1 139.6,403.1 139.6,397.5 150.9,397.5 150.9,392 133.3,392 133.3,405.5 149.4,405.5 			
				"/>
		</g>
		<g>
			<path class="st0" d="M50.2,357.6v15.6h8.5c4.3,0,7.5-0.8,9.7-2.3s3.2-3.6,3.2-6.4c0-1.7-0.5-3.2-1.4-4.3c-0.9-1.2-2.3-2-4.1-2.6
				l0,0L50.2,357.6L50.2,357.6z M64.8,366.3c-0.4,0.5-1,0.9-2,1.1s-2.3,0.4-4,0.4h-2.3v-7.1h3.7c3.4,0,5.1,1.2,5.1,3.5
				C65.3,365.1,65.1,365.8,64.8,366.3z"/>
			<path class="st0" d="M67.9,351.9c0-2.4-1-4.2-2.9-5.4c-1.9-1.2-5-1.8-9-1.8h-8.3v13h16C66.5,356.6,67.9,354.6,67.9,351.9z
				 M60.5,355.7c-0.8,0.5-1.8,0.8-3.2,0.8H54V350h1.9c2.1,0,3.6,0.3,4.5,0.8c0.8,0.5,1.3,1.3,1.3,2.5
				C61.6,354.3,61.2,355.1,60.5,355.7z"/>
		</g>
	</g>
</g>
</svg>
